<svg id="Layer_1" data-name="Layer 1" xmlns="http://www.w3.org/2000/svg" viewBox="0 0 50 50"><defs><style>.cls-1{fill:#f6922a;}</style></defs><g id="Path_384" data-name="Path 384"><path class="cls-1" d="M26.59,25l6.7-6.71a1.11,1.11,0,1,0-1.42-1.71,1,1,0,0,0-.15.14L25,23.41l-6.71-6.7a1.11,1.11,0,0,0-1.58,0,1.13,1.13,0,0,0,0,1.58L23.43,25,16.72,31.7a1.13,1.13,0,0,0,0,1.58,1.11,1.11,0,0,0,1.58,0h0L25,26.57l6.71,6.71a1.12,1.12,0,0,0,1.57-1.58Z"/></g><path class="cls-1" d="M25,49.38A24.38,24.38,0,1,1,49.38,25,24.4,24.4,0,0,1,25,49.38ZM25,1.82A23.18,23.18,0,1,0,48.18,25,23.21,23.21,0,0,0,25,1.82Z"/></svg>