<svg id="Layer_1" data-name="Layer 1" xmlns="http://www.w3.org/2000/svg" viewBox="0 0 50 50"><defs><style>.cls-1{fill:#f6922a;}</style></defs><g id="Path_315" data-name="Path 315"><path class="cls-1" d="M25,37.21h-.28A24.78,24.78,0,0,1,.37,12.84l2.8,0A22,22,0,0,0,24.76,34.4a21.34,21.34,0,0,0,15.5-6.22,21.73,21.73,0,0,0,6.57-15.37l2.8,0A24.63,24.63,0,0,1,25,37.21Z"/></g><g id="Path_316" data-name="Path 316"><path class="cls-1" d="M25,29.48A16.66,16.66,0,0,1,8.36,12.84h2.8A13.86,13.86,0,0,0,25,26.67h0A13.83,13.83,0,0,0,38.84,12.83h2.81A16.64,16.64,0,0,1,25,29.48Z"/></g><g id="Path_317" data-name="Path 317"><path class="cls-1" d="M25,22.37a9.4,9.4,0,0,1-9.39-9.22v-.36l2.8.08a6.59,6.59,0,1,0,13.18,0l2.8,0a9.4,9.4,0,0,1-9.21,9.57Z"/></g></svg>