<svg id="Layer_1" data-name="Layer 1" xmlns="http://www.w3.org/2000/svg" viewBox="0 0 50 50"><defs><style>.cls-1{fill:#3e3e3e;}</style></defs><g id="Group_392" data-name="Group 392"><path id="Path_377" data-name="Path 377" class="cls-1" d="M27.29,49.58H22.71a3.07,3.07,0,0,1-3.05-2.7L19.17,43a19.1,19.1,0,0,1-2.81-1.16L13.3,44.25A3.06,3.06,0,0,1,9.23,44L6,40.76a3,3,0,0,1-.25-4l2.38-3.07A17.72,17.72,0,0,1,7,30.83l-3.85-.49a3.08,3.08,0,0,1-2.7-3.05V22.71a3.07,3.07,0,0,1,2.7-3.05L7,19.17a18.66,18.66,0,0,1,1.16-2.81L5.76,13.3A3.05,3.05,0,0,1,6,9.23L9.24,6a3.06,3.06,0,0,1,4.06-.25l3.06,2.38A19.81,19.81,0,0,1,19.17,7l.49-3.85A3.08,3.08,0,0,1,22.71.42H27.3a3.07,3.07,0,0,1,3,2.7L30.83,7a19.22,19.22,0,0,1,2.82,1.16l3.06-2.38A3,3,0,0,1,40.77,6L44,9.24a3,3,0,0,1,.25,4l-2.38,3.07A18.66,18.66,0,0,1,43,19.17l3.85.49a3.08,3.08,0,0,1,2.7,3.05V27.3a3.07,3.07,0,0,1-2.7,3L43,30.83a18.66,18.66,0,0,1-1.16,2.81l2.38,3.06A3.06,3.06,0,0,1,44,40.77L40.76,44a3,3,0,0,1-4,.24l-3.06-2.37A19.22,19.22,0,0,1,30.83,43l-.49,3.85A3.08,3.08,0,0,1,27.29,49.58Zm-11-10a1.2,1.2,0,0,1,.5.13,17,17,0,0,0,3.63,1.51,1,1,0,0,1,.74.85l.57,4.52a1.05,1.05,0,0,0,1,.91H27.3a1,1,0,0,0,1-.9l.57-4.52a1,1,0,0,1,.74-.85,17.76,17.76,0,0,0,3.63-1.52,1,1,0,0,1,1.12.08L38,42.62a1,1,0,0,0,1.34-.07l3.24-3.25A1,1,0,0,0,42.63,38l-2.79-3.58a1,1,0,0,1-.09-1.12,17.15,17.15,0,0,0,1.5-3.63,1,1,0,0,1,.86-.74l4.5-.57a1.05,1.05,0,0,0,.91-1V22.71a1,1,0,0,0-.9-1l-4.51-.58a1,1,0,0,1-.86-.74,17.15,17.15,0,0,0-1.5-3.63,1,1,0,0,1,.08-1.12L42.62,12a1,1,0,0,0-.07-1.34L39.31,7.46A1,1,0,0,0,38,7.37l-3.58,2.79a1,1,0,0,1-1.13.09,17.15,17.15,0,0,0-3.63-1.5,1,1,0,0,1-.74-.86l-.57-4.52a1,1,0,0,0-1-.91H22.71a1,1,0,0,0-1,.9l-.58,4.52a1,1,0,0,1-.74.86,17.19,17.19,0,0,0-3.63,1.51,1,1,0,0,1-1.12-.08L12,7.37a1,1,0,0,0-1.34.07L7.46,10.69A1,1,0,0,0,7.37,12l2.79,3.59a1,1,0,0,1,.09,1.12,17,17,0,0,0-1.5,3.64,1,1,0,0,1-.86.73l-4.52.57a1.05,1.05,0,0,0-.91,1V27.3a1,1,0,0,0,.9,1l4.52.57a1,1,0,0,1,.85.74,17.76,17.76,0,0,0,1.52,3.63,1,1,0,0,1-.08,1.12L7.37,38a1,1,0,0,0,.07,1.34l3.25,3.24a1,1,0,0,0,1.35.08l3.58-2.78a1.09,1.09,0,0,1,.63-.22Z"/></g><g id="Group_393" data-name="Group 393"><path id="Path_378" data-name="Path 378" class="cls-1" d="M25,34.09A9.1,9.1,0,1,1,34.09,25h0A9.1,9.1,0,0,1,25,34.09Zm0-16.37A7.28,7.28,0,1,0,32.28,25,7.28,7.28,0,0,0,25,17.72Z"/></g></svg>