<svg id="Layer_1" data-name="Layer 1" xmlns="http://www.w3.org/2000/svg" viewBox="0 0 50 50"><defs><style>.cls-1{fill:#f6922a;}</style></defs><path class="cls-1" d="M45.69,31.22a1.22,1.22,0,0,0-1.22,1.22V43.26a3.65,3.65,0,0,1-3.66,3.65H6.64A3.65,3.65,0,0,1,3,43.26V11.51A3.66,3.66,0,0,1,6.64,7.86H17.45a1.22,1.22,0,0,0,0-2.44H6.64a6.11,6.11,0,0,0-6.1,6.09V43.26a6.1,6.1,0,0,0,6.1,6.09H40.81a6.1,6.1,0,0,0,6.1-6.09V32.44A1.22,1.22,0,0,0,45.69,31.22Z"/><path class="cls-1" d="M46.42,2.29a5.48,5.48,0,0,0-7.75,0L16.94,24a1.18,1.18,0,0,0-.31.54L13.77,34.88a1.21,1.21,0,0,0,1.5,1.49l10.31-2.85a1.24,1.24,0,0,0,.54-.32L47.85,11.47a5.48,5.48,0,0,0,0-7.75ZM19.59,24.81,37.38,7l5.74,5.73L25.33,30.55Zm-1.14,2.3L23,31.7l-6.34,1.75ZM46.13,9.75,44.84,11,39.1,5.3,40.39,4A3,3,0,0,1,44.7,4l1.43,1.43A3,3,0,0,1,46.13,9.75Z"/></svg>