<svg id="Layer_1" data-name="Layer 1" xmlns="http://www.w3.org/2000/svg" viewBox="0 0 50 50"><defs><style>.cls-1{fill:#f6922a;}</style></defs><g id="Path_313" data-name="Path 313"><path class="cls-1" d="M25,37.19h-.28A24.77,24.77,0,0,1,.37,12.84l2.81,0A22,22,0,0,0,24.76,34.39a21.38,21.38,0,0,0,15.5-6.23,21.63,21.63,0,0,0,6.56-15.35l2.81,0A24.63,24.63,0,0,1,25,37.19Z"/></g><g id="Path_314" data-name="Path 314"><path class="cls-1" d="M25,29.47A16.66,16.66,0,0,1,8.36,12.84l2.81,0A13.85,13.85,0,0,0,25,26.66h0A13.83,13.83,0,0,0,38.83,12.82h2.81A16.64,16.64,0,0,1,25,29.47Z"/></g></svg>