<svg id="Layer_1" data-name="Layer 1" xmlns="http://www.w3.org/2000/svg" viewBox="0 0 50 50"><defs><style>.cls-1{fill:#3e3e3e;}</style></defs><path class="cls-1" d="M49.79,22.3a.45.45,0,0,0,0-.16s0-.08,0-.12c-.15-1.65-1.92-2.37-3.19-3.11L41.5,16,35,12.16,29.64,9.09,28.28,8.3a5.91,5.91,0,0,0-2.61-.63,9.24,9.24,0,0,0-2.91.25,4,4,0,0,0-.81.3l-1.13.65-5,2.87L9.26,15.48,3.77,18.63l-1.56.89a5,5,0,0,0-1.28.91,2.54,2.54,0,0,0-.72,1.85v5.18s0,.06,0,.09,0,.14,0,.22A3.47,3.47,0,0,0,1.82,30.1h0l2.49,1.45,5.83,3.38,6.43,3.74L21,41.22c.29.18.58.34.88.49a7.61,7.61,0,0,0,5.94.08,26.45,26.45,0,0,0,2.65-1.49L36.19,37l6.48-3.72,4.69-2.69.85-.5a3,3,0,0,0,1.53-2.16.7.7,0,0,0,0-.25ZM48.2,24.71a3.51,3.51,0,0,0,.4-.27v1.07a8.1,8.1,0,0,0-.84-.55ZM26.5,9a4.42,4.42,0,0,1,.61.13l.24.06s.31.14.15.05l.05,0,.35.2,4,2.3,6.22,3.61L44,18.8c1.06.61,2.12,1.24,3.19,1.85a5.73,5.73,0,0,1,.79.48,2.34,2.34,0,0,1,.39.38,3.24,3.24,0,0,1,.17.32.94.94,0,0,1,.05.47h0a.55.55,0,0,1,0,.18,1.75,1.75,0,0,1-.32.64l-.07.1-.13.14-.15.13-.06.06h0a2.59,2.59,0,0,1-.31.19l-.94.54-5.07-2.94L35,17.56l-5.3-3.07L28.3,13.7a5.91,5.91,0,0,0-2.61-.63H25.6V8.89C25.9,8.91,26.2,8.93,26.5,9ZM22.2,35.15c-.94-.52-1.84-1.07-2.77-1.61l-5.8-3.36L7.36,26.54l-2.75-1.6L7.49,23.3l6.32-3.62,5.84-3.33,3-1.7h0l.19-.07a1.81,1.81,0,0,1,.31-.09c.23-.06.46-.11.7-.15a8.67,8.67,0,0,1,2.69,0c.2,0,.4.08.61.14l.23.07c.06,0,.31.12.15,0l.06,0,.35.2,3.95,2.3,6.22,3.61L44,24.2l1.38.79-1.13.66-6,3.44L32,32.64,28,35a5.52,5.52,0,0,1-1.27.56A6.33,6.33,0,0,1,22.2,35.15ZM1.43,21.93a1.94,1.94,0,0,1,1-1.14l.7-.4L7.48,17.9l6.33-3.62L19.64,11l3-1.7.05,0c-.14.07.1,0,.14,0l.31-.09a5.42,5.42,0,0,1,.7-.14c.2,0,.4,0,.6,0v4.17a10,10,0,0,0-1.63.25,4.12,4.12,0,0,0-.83.3c-.38.21-.75.43-1.12.65l-5,2.88L9.27,20.88,3.77,24l-.37.21L3.05,24l-.61-.36h0a2.79,2.79,0,0,1-.92-1A1.15,1.15,0,0,1,1.43,21.93Zm0,2.45a3.32,3.32,0,0,0,.42.32h0l.39.23a4.3,4.3,0,0,0-.81.52ZM19.46,39l-5.8-3.36L7.39,32l-4.31-2.5-.61-.36h0a2.82,2.82,0,0,1-.92-1,1.15,1.15,0,0,1-.08-.73,2,2,0,0,1,1-1.14l.69-.4.29-.16.92.54,5.83,3.38,6.43,3.73L21,35.83c.29.18.58.34.88.49a7.86,7.86,0,0,0,2.54.61v4.24a6.24,6.24,0,0,1-2.18-.61C21.29,40.05,20.39,39.49,19.46,39ZM48.27,28.53a.65.65,0,0,0-.08.09l-.13.15-.14.13-.06.05h0l-.3.19L44.25,31l-6,3.44-6.22,3.57L28,40.39a5.52,5.52,0,0,1-1.27.56,5.43,5.43,0,0,1-1.11.21V36.93a7.69,7.69,0,0,0,2.2-.53,26.6,26.6,0,0,0,2.66-1.49l5.71-3.29,6.49-3.73,3.87-2.23.66.39a5.84,5.84,0,0,1,.8.48,2.28,2.28,0,0,1,.38.38,1.41,1.41,0,0,1,.17.32.8.8,0,0,1,.05.21v.28a1.22,1.22,0,0,1,0,.17A1.73,1.73,0,0,1,48.27,28.53Z"/></svg>