<svg id="Layer_1" data-name="Layer 1" xmlns="http://www.w3.org/2000/svg" viewBox="0 0 50 50"><defs><style>.cls-1{fill:#f6922a;}</style></defs><g id="Path_383" data-name="Path 383"><path class="cls-1" d="M25,50A25,25,0,1,1,50,25,25,25,0,0,1,25,50ZM25,1.22A23.78,23.78,0,1,0,48.78,25,23.81,23.81,0,0,0,25,1.22Zm9.79,36a2.22,2.22,0,0,1-1.12-.31A28.33,28.33,0,0,0,13,34.56a2.26,2.26,0,0,1-1.69-.29,2.23,2.23,0,0,1-1-1.39,2.18,2.18,0,0,1,1.34-2.51A32.22,32.22,0,0,1,35.9,33.12a2.21,2.21,0,0,1,.78,3h0a2.15,2.15,0,0,1-1.35,1A2,2,0,0,1,34.79,37.21Zm-.46-1.32a1,1,0,0,0,1-1.73A31,31,0,0,0,12.09,31.5a1,1,0,0,0,.65,1.89,29.53,29.53,0,0,1,21.51,2.46Zm3.22-5.26a2.44,2.44,0,0,1-1.24-.34l-.08-.05a31.37,31.37,0,0,0-23.79-2.75,2.44,2.44,0,0,1-1.87-.09,2.49,2.49,0,0,1-1.21-3.31,2.47,2.47,0,0,1,1.4-1.29l.11,0A36.33,36.33,0,0,1,38.79,26a2.49,2.49,0,0,1,.92,3.41h0A2.49,2.49,0,0,1,37.55,30.63ZM37,29.31a1.29,1.29,0,0,0,1.65-.53h0A1.3,1.3,0,0,0,38.2,27a35.17,35.17,0,0,0-27-3.1,1.27,1.27,0,0,0-.76.69,1.29,1.29,0,0,0,.63,1.71,1.26,1.26,0,0,0,1,0,32.53,32.53,0,0,1,24.83,2.9Zm3.52-6.15a2.84,2.84,0,0,1-1.36-.35A40,40,0,0,0,11.3,20a2.9,2.9,0,0,1-2.21-.23,2.94,2.94,0,0,1,.47-5.36,45.32,45.32,0,0,1,32.35,3.24,2.87,2.87,0,0,1,1.45,1.72,2.93,2.93,0,0,1-2.6,3.8h-.22ZM40.4,22h.16A1.71,1.71,0,0,0,42.09,21a1.69,1.69,0,0,0,.12-1.32,1.74,1.74,0,0,0-.84-1A44.16,44.16,0,0,0,9.9,15.54a1.73,1.73,0,0,0-.24,3.15,1.74,1.74,0,0,0,1.32.14,41.09,41.09,0,0,1,28.75,2.92A1.85,1.85,0,0,0,40.4,22Z"/></g></svg>