<?xml version="1.0" encoding="utf-8"?>
<!-- Generator: Adobe Illustrator 25.3.1, SVG Export Plug-In . SVG Version: 6.00 Build 0)  -->
<svg version="1.1" id="Layer_1" xmlns="http://www.w3.org/2000/svg" xmlns:xlink="http://www.w3.org/1999/xlink" x="0px" y="0px"
	 viewBox="0 0 64 64" style="enable-background:new 0 0 64 64;" xml:space="preserve">
<g id="Group_472" transform="translate(-284.247 -38.895)">
	<g id="Group_471" transform="translate(284.247 38.895)">
		<g id="Group_254">
			<path id="Path_287" d="M13.7,27L7.6,43.4l0,0c1.5,6,4.8,11.3,9.5,15.3l7.7-2.9C16.6,48.5,12.5,37.8,13.7,27z"/>
			<path id="Path_288" d="M5.5,48.9L0.8,61.5c-0.4,1,0.1,2.1,1.1,2.4c0.4,0.2,0.9,0.2,1.3,0l9.9-3.7C9.8,57,7.2,53.1,5.5,48.9
				L5.5,48.9z"/>
			<path id="Path_289" d="M26.9,25.5l-7-7c-5.6,12.6-1.9,27.3,8.9,35.8l7.5-2.8C29.6,44.6,26.1,35.1,26.9,25.5L26.9,25.5z"/>
			<path id="Path_290" d="M30.5,29.1c0.3,8,3.8,15.5,9.6,20.9l0,0l5.5-2.1c1-0.4,1.5-1.4,1.1-2.4c-0.1-0.3-0.2-0.5-0.4-0.7
				L30.5,29.1z"/>
			<g id="Group_253" transform="translate(16.237 9.847)">
				<path id="Path_291" d="M28,25.2c0.7,0.7,1.9,0.7,2.6,0c7.1-7.1,13.9-4.9,14-4.9c1,0.3,2-0.2,2.3-1.2c0.3-1-0.2-2-1.2-2.3
					c-0.4-0.1-9.2-2.9-17.8,5.8C27.2,23.3,27.2,24.4,28,25.2z"/>
			</g>
			<path id="Path_292" d="M32.3,20.4C41,11.8,38.2,3,38,2.6c-0.3-1-1.4-1.5-2.4-1.1c-1,0.3-1.5,1.4-1.2,2.3c0,0.1,2.2,6.9-4.9,14
				c-0.8,0.7-0.8,1.9-0.1,2.6c0.7,0.8,1.9,0.8,2.6,0.1C32.2,20.5,32.2,20.5,32.3,20.4L32.3,20.4z"/>
			<path id="Path_293" d="M36.3,24.4c-0.7,0.7-0.7,1.9,0,2.7c0.7,0.7,1.9,0.7,2.7,0c1-0.5,4,1.3,5.6-0.3c1.7-1.7-0.1-4.6,0.3-5.6
				c1-0.4,4,1.3,5.6-0.3c1.7-1.7-0.1-4.6,0.3-5.6c1-0.4,4,1.3,5.6-0.3s-0.1-4.6,0.3-5.6c1-0.4,4,1.3,5.6-0.3s-0.1-4.7,0.3-5.6
				c0.7-0.7,0.7-1.9,0-2.7s-1.9-0.7-2.7,0C59,2,58.7,3.9,59.2,5.6c-1.7-0.6-3.6-0.2-5.1,0.9c-1.1,1.4-1.5,3.3-0.9,5.1
				c-1.7-0.6-3.6-0.2-5.1,0.9c-1.1,1.4-1.5,3.3-0.9,5.1c-1.7-0.6-3.6-0.2-5.1,0.9c-1.1,1.4-1.5,3.3-0.9,5.1
				C39.6,22.9,37.7,23.3,36.3,24.4L36.3,24.4z"/>
			<path id="Path_294" d="M46.9,8.5c0.7-0.7,0.7-1.9,0-2.7c-0.7-0.7-1.9-0.7-2.7,0c-0.7,0.7-0.7,1.9,0,2.7c0,0,0,0,0,0
				C45,9.2,46.1,9.2,46.9,8.5z"/>
			<ellipse id="Ellipse_36" cx="58.8" cy="20.4" rx="1.9" ry="1.9"/>
			<path id="Path_295" d="M54.8,37.7c-0.7,0.7-0.7,1.9,0,2.7c0.7,0.7,1.9,0.7,2.7,0c0.7-0.7,0.7-1.9,0-2.7c0,0,0,0,0,0
				C56.7,36.9,55.6,36.9,54.8,37.7z"/>
			<path id="Path_296" d="M28.3,11.2c0.7-0.7,0.7-1.9,0-2.7c-0.7-0.7-1.9-0.7-2.7,0c-0.7,0.7-0.7,1.9,0,2.7c0,0,0,0,0,0
				C26.4,11.9,27.6,11.9,28.3,11.2z"/>
		</g>
		<path id="Path_298" d="M9.9,7.8L16,1.8c0.4-0.4,0.4-1,0-1.4c-0.4-0.4-1-0.4-1.4,0L8.5,6.4L2.4,0.3C2-0.1,1.4-0.1,1,0.3
			s-0.4,1,0,1.4L7,7.8L1,13.9c-0.4,0.4-0.4,1,0,1.4s1,0.4,1.4,0l6.1-6.1l6.1,6.1c0.4,0.4,1,0.4,1.4,0s0.4-1,0-1.4L9.9,7.8z"/>
	</g>
</g>
</svg>
