<?xml version="1.0" encoding="UTF-8"?>
<svg xmlns="http://www.w3.org/2000/svg" xmlns:xlink="http://www.w3.org/1999/xlink" width="1190.25pt" height="1683.749945pt" viewBox="0 0 1190.25 1683.749945" version="1.2">
<defs>
<clipPath id="clip1">
  <path d="M 362 967 L 455 967 L 455 1080.207031 L 362 1080.207031 Z M 362 967 "/>
</clipPath>
<clipPath id="clip2">
  <path d="M 362 604.058594 L 479 604.058594 L 479 721 L 362 721 Z M 362 604.058594 "/>
</clipPath>
</defs>
<g id="surface1">
<path style=" stroke:none;fill-rule:nonzero;fill:rgb(100%,100%,100%);fill-opacity:1;" d="M 459.015625 804.933594 L 413.632812 926.945312 C 424.792969 971.585938 449.34375 1011.015625 484.3125 1040.777344 L 541.597656 1019.199219 C 480.589844 964.890625 450.089844 885.285156 459.015625 804.933594 Z M 459.015625 804.933594 "/>
<g clip-path="url(#clip1)" clip-rule="nonzero">
<path style=" stroke:none;fill-rule:nonzero;fill:rgb(100%,100%,100%);fill-opacity:1;" d="M 398.007812 967.867188 L 363.042969 1061.609375 C 360.066406 1069.046875 363.785156 1077.230469 371.226562 1079.464844 C 374.203125 1080.949219 377.921875 1080.949219 380.898438 1079.464844 L 454.550781 1051.9375 C 430 1028.128906 410.65625 999.113281 398.007812 967.867188 Z M 398.007812 967.867188 "/>
</g>
<path style=" stroke:none;fill-rule:nonzero;fill:rgb(100%,100%,100%);fill-opacity:1;" d="M 557.222656 793.773438 L 505.144531 741.695312 C 463.480469 835.4375 491.007812 944.800781 571.355469 1008.039062 L 627.15625 987.210938 C 577.308594 935.875 551.269531 865.195312 557.222656 793.773438 Z M 557.222656 793.773438 "/>
<path style=" stroke:none;fill-rule:nonzero;fill:rgb(100%,100%,100%);fill-opacity:1;" d="M 584.003906 820.558594 C 586.238281 880.074219 612.277344 935.875 655.425781 976.050781 L 696.347656 960.425781 C 703.785156 957.449219 707.507812 950.011719 704.53125 942.570312 C 703.785156 940.339844 703.042969 938.851562 701.554688 937.363281 Z M 584.003906 820.558594 "/>
<path style=" stroke:none;fill-rule:nonzero;fill:rgb(100%,100%,100%);fill-opacity:1;" d="M 686.207031 864.800781 C 691.414062 870.007812 700.34375 870.007812 705.550781 864.800781 C 758.371094 811.980469 808.964844 828.347656 809.707031 828.347656 C 817.148438 830.578125 824.585938 826.859375 826.820312 819.417969 C 829.050781 811.980469 825.332031 804.539062 817.890625 802.308594 C 814.914062 801.5625 749.445312 780.730469 685.460938 845.457031 C 680.253906 850.664062 680.253906 858.847656 686.207031 864.800781 Z M 686.207031 864.800781 "/>
<path style=" stroke:none;fill-rule:nonzero;fill:rgb(100%,100%,100%);fill-opacity:1;" d="M 597.398438 755.832031 C 662.125 691.847656 641.292969 626.378906 639.804688 623.402344 C 637.570312 615.960938 629.386719 612.242188 621.949219 615.21875 C 614.507812 617.449219 610.789062 625.632812 613.019531 632.328125 C 613.019531 633.074219 629.386719 683.664062 576.566406 736.488281 C 570.613281 741.695312 570.613281 750.621094 575.820312 755.832031 C 581.027344 761.78125 589.957031 761.78125 595.164062 756.574219 C 596.652344 756.574219 596.652344 756.574219 597.398438 755.832031 Z M 597.398438 755.832031 "/>
<path style=" stroke:none;fill-rule:nonzero;fill:rgb(100%,100%,100%);fill-opacity:1;" d="M 627.15625 785.589844 C 621.949219 790.796875 621.949219 799.726562 627.15625 805.675781 C 632.363281 810.886719 641.292969 810.886719 647.242188 805.675781 C 654.683594 801.957031 677.003906 815.347656 688.90625 803.445312 C 701.554688 790.796875 688.164062 769.222656 691.140625 761.78125 C 698.578125 758.804688 720.898438 771.453125 732.800781 759.550781 C 745.449219 746.902344 732.058594 725.328125 735.035156 717.886719 C 742.472656 714.910156 764.792969 727.558594 776.695312 715.65625 C 788.601562 703.75 775.953125 681.433594 778.929688 673.992188 C 786.367188 671.015625 808.6875 683.664062 820.59375 671.761719 C 832.496094 659.855469 819.847656 636.792969 822.824219 630.097656 C 828.03125 624.890625 828.03125 615.960938 822.824219 610.007812 C 817.617188 604.058594 808.6875 604.800781 802.734375 610.007812 C 796.039062 618.9375 793.808594 633.074219 797.527344 645.71875 C 784.878906 641.257812 770.746094 644.234375 759.585938 652.417969 C 751.402344 662.832031 748.425781 676.96875 752.890625 690.359375 C 740.242188 685.894531 726.105469 688.871094 714.945312 697.054688 C 706.761719 707.472656 703.785156 721.605469 708.25 735 C 695.601562 730.535156 681.46875 733.511719 670.308594 741.695312 C 662.125 752.109375 659.148438 766.246094 663.613281 779.636719 C 651.707031 774.429688 637.570312 777.40625 627.15625 785.589844 Z M 627.15625 785.589844 "/>
<path style=" stroke:none;fill-rule:nonzero;fill:rgb(100%,100%,100%);fill-opacity:1;" d="M 706.019531 667.296875 C 711.226562 662.089844 711.226562 653.160156 706.019531 647.207031 C 700.8125 642 691.882812 642 685.929688 647.207031 C 680.722656 652.417969 680.722656 661.34375 685.929688 667.296875 C 691.882812 672.503906 700.066406 672.503906 706.019531 667.296875 Z M 706.019531 667.296875 "/>
<path style=" stroke:none;fill-rule:nonzero;fill:rgb(100%,100%,100%);fill-opacity:1;" d="M 808.6875 755.832031 C 808.6875 756.757812 808.597656 757.675781 808.417969 758.585938 C 808.234375 759.5 807.96875 760.382812 807.613281 761.238281 C 807.257812 762.097656 806.820312 762.910156 806.304688 763.683594 C 805.789062 764.457031 805.203125 765.167969 804.546875 765.824219 C 803.890625 766.480469 803.175781 767.066406 802.40625 767.582031 C 801.632812 768.097656 800.820312 768.535156 799.960938 768.890625 C 799.105469 769.246094 798.21875 769.511719 797.308594 769.695312 C 796.398438 769.875 795.480469 769.964844 794.550781 769.964844 C 793.625 769.964844 792.703125 769.875 791.792969 769.695312 C 790.882812 769.511719 790 769.246094 789.144531 768.890625 C 788.285156 768.535156 787.472656 768.097656 786.699219 767.582031 C 785.925781 767.066406 785.214844 766.480469 784.558594 765.824219 C 783.902344 765.167969 783.316406 764.457031 782.800781 763.683594 C 782.285156 762.910156 781.847656 762.097656 781.492188 761.238281 C 781.136719 760.382812 780.871094 759.5 780.6875 758.585938 C 780.507812 757.675781 780.417969 756.757812 780.417969 755.832031 C 780.417969 754.902344 780.507812 753.984375 780.6875 753.074219 C 780.871094 752.160156 781.136719 751.277344 781.492188 750.421875 C 781.847656 749.5625 782.285156 748.75 782.800781 747.976562 C 783.316406 747.203125 783.902344 746.492188 784.558594 745.835938 C 785.214844 745.179688 785.925781 744.59375 786.699219 744.078125 C 787.472656 743.5625 788.285156 743.125 789.144531 742.769531 C 790 742.414062 790.882812 742.148438 791.792969 741.964844 C 792.703125 741.785156 793.625 741.695312 794.550781 741.695312 C 795.480469 741.695312 796.398438 741.785156 797.308594 741.964844 C 798.21875 742.148438 799.105469 742.414062 799.960938 742.769531 C 800.820312 743.125 801.632812 743.5625 802.40625 744.078125 C 803.175781 744.59375 803.890625 745.179688 804.546875 745.835938 C 805.203125 746.492188 805.789062 747.203125 806.304688 747.976562 C 806.820312 748.75 807.257812 749.5625 807.613281 750.421875 C 807.96875 751.277344 808.234375 752.160156 808.417969 753.074219 C 808.597656 753.984375 808.6875 754.902344 808.6875 755.832031 Z M 808.6875 755.832031 "/>
<path style=" stroke:none;fill-rule:nonzero;fill:rgb(100%,100%,100%);fill-opacity:1;" d="M 764.792969 884.539062 C 759.585938 889.746094 759.585938 898.675781 764.792969 904.625 C 770 909.835938 778.929688 909.835938 784.878906 904.625 C 790.089844 899.417969 790.089844 890.492188 784.878906 884.539062 C 778.929688 878.585938 770.746094 878.585938 764.792969 884.539062 Z M 764.792969 884.539062 "/>
<path style=" stroke:none;fill-rule:nonzero;fill:rgb(100%,100%,100%);fill-opacity:1;" d="M 567.636719 687.382812 C 572.84375 682.175781 572.84375 673.246094 567.636719 667.296875 C 562.429688 662.089844 553.5 662.089844 547.550781 667.296875 C 542.34375 672.503906 542.34375 681.433594 547.550781 687.382812 C 553.5 692.589844 562.429688 692.589844 567.636719 687.382812 Z M 567.636719 687.382812 "/>
<g clip-path="url(#clip2)" clip-rule="nonzero">
<path style=" stroke:none;fill-rule:nonzero;fill:rgb(100%,100%,100%);fill-opacity:1;" d="M 430.746094 662.089844 L 476.128906 617.449219 C 479.101562 614.472656 479.101562 610.007812 476.128906 607.035156 C 473.152344 604.058594 468.6875 604.058594 465.710938 607.035156 L 420.328125 651.671875 L 374.945312 606.289062 C 371.96875 603.3125 367.503906 603.3125 364.53125 606.289062 C 361.554688 609.265625 361.554688 613.730469 364.53125 616.707031 L 409.167969 662.089844 L 364.53125 707.472656 C 361.554688 710.445312 361.554688 714.910156 364.53125 717.886719 C 367.503906 720.863281 371.96875 720.863281 374.945312 717.886719 L 420.328125 672.503906 L 465.710938 717.886719 C 468.6875 720.863281 473.152344 720.863281 476.128906 717.886719 C 479.101562 714.910156 479.101562 710.445312 476.128906 707.472656 Z M 430.746094 662.089844 "/>
</g>
</g>
</svg>
